SplineFontDB: 2.0
FontName: gregorio-base
FullName: gregorio
FamilyName: gregorio
Weight: Medium
Copyright: gregorio font, created with FontForge.\nCopyright (C) 2007 Elie Roux <elie.roux@enst-bretagne.fr>\n\nThis program is free software: you can redistribute it and/or modify\nit under the terms of the GNU General Public License as published by\nthe Free Software Foundation, either version 3 of the License, or\n(at your option) any later version.\n\nThis program is distributed in the hope that it will be useful,\nbut WITHOUT ANY WARRANTY; without even the implied warranty of\nMERCHANTABILITY or FITNESS FOR A PARTICULAR PURPOSE.  See the\nGNU General Public License for more details.\n\nYou should have received a copy of the GNU General Public License\nalong with this program.  If not, see <http://www.gnu.org/licenses/>.\n\nAs a special exception, if you create a document which uses this font, and embed this font or unaltered portions of this font into the document, this font does not by itself cause the resulting document to be covered by the GNU General Public License. This exception does not however invalidate any other reasons why the document might be covered by the GNU General Public License. If you modify this font, you may extend this exception to your version of the font, but you are not obligated to do so. If you do not wish to do so, delete this exception statement from your version.
Comments: 2007-4-12: Created.
Version: 1.2
ItalicAngle: 0
UnderlinePosition: -204
UnderlineWidth: 102
Ascent: 800
Descent: 200
XUID: [1021 341 828717519 16122349]
OS2Version: 0
OS2_WeightWidthSlopeOnly: 0
OS2_UseTypoMetrics: 1
CreationTime: 1176402534
ModificationTime: 1187705014
OS2TypoAscent: 0
OS2TypoAOffset: 1
OS2TypoDescent: 0
OS2TypoDOffset: 1
OS2TypoLinegap: 0
OS2WinAscent: 0
OS2WinAOffset: 1
OS2WinDescent: 0
OS2WinDOffset: 1
HheadAscent: 0
HheadAOffset: 1
HheadDescent: 0
HheadDOffset: 1
OS2Vendor: 'PfEd'
Encoding: Custom
UnicodeInterp: none
NameList: Adobe Glyph List

StartChar: _0017
Encoding: 0 66 0
Width: 164
VWidth: 2048
Flags: HW
TeX: 0 0 0 0
HStem: -409 15 -94 15 221 15 536 15
Fore
82 166 m 28
 114.583 166 144 158 164 150 c 13
 164 87.5996 164 -10 164 -10 c 4
 149 0.958008 118 9 82 9 c 4
 47 9 15 0.65625 0 -10 c 5
 0 32 0 150 0 150 c 4
 20 161 49.417 166 82 166 c 28
EndSplineSet
EndChar
StartChar: _0019
Encoding: 1 67 1
Width: 164
VWidth: 2048
Flags: W
TeX: 0 0 0 0
HStem: -409 15 -94 15 221 15 536 15
Fore
77.5 192 m 5
 90.333 178.167 148 106 164 87 c 5
 140 51.167 110.5 5 89 -33.5 c 5
 64.333 -16.833 11 48.833 0 80 c 5
 6.66699 103.833 62.873 177.667 77.5 192 c 5
EndSplineSet
EndChar
StartChar: _0020
Encoding: 2 68 2
Width: 164
VWidth: 2048
Flags: HW
TeX: 0 0 0 0
HStem: -409 15 -94 15 221 15 536 15
Fore
58.5 163.504 m 1
 110.666 123.337 152.283 81.334 164 62 c 1
 154.5 13 111 -30.3301 96.0059 -47.3262 c 1
 92.5059 -51.3262 73 -67.4961 84 -43.9961 c 1
 90.667 -22.6631 77.334 -9.99414 67.333 1.33789 c 0
 55.8369 14.3633 26.666 40.6729 0 56.6709 c 1
 5.66699 68.5049 51.333 146.337 58.5 163.504 c 1
EndSplineSet
EndChar
StartChar: _0026
Encoding: 3 69 3
Width: 164
VWidth: 2048
Flags: HW
TeX: 0 0 0 0
HStem: -409 15 -94 15 221 15 536 15
Fore
0.155273 154.667 m 5
 -14.7559 152.207 -8.11914 105.713 -6.39941 90.001 c 1
 4.00293 -5.59961 l 1
 7.6 -20.4 9.06836 -50.6641 28.4043 -53.998 c 1
 51.6 -47.2 38.2695 10.332 55.5986 22 c 1
 72.2695 8.66602 58.6667 -30 86.0068 -34.001 c 1
 114 -30 100.995 32.9961 117.003 40.999 c 1
 134.667 34 120.332 -1.00781 144.336 -5.66699 c 1
 165.667 -1 164 17.6667 164.004 35.333 c 1
 164.156 160.669 l 1
 160.667 156.667 157.333 152 146.667 148 c 1
 129.656 153 136.667 204 117.161 203.669 c 1
 98 204 101.333 122.667 87.1562 114.5 c 1
 75.3333 120 78 183.333 57.165 183.335 c 1
 34.6667 183.333 44.5117 112.303 30.001 102.803 c 1
 18.5117 112.303 16.7998 155.6 0.155273 154.667 c 5
EndSplineSet
EndChar
StartChar: _0028
Encoding: 4 70 4
Width: 164
VWidth: 2048
Flags: HW
TeX: 0 0 0 0
HStem: -409 15 -94 15 221 15 536 15
Fore
0 191 m 17
 5.59004 172.99 2.76983 161.341 4.5 146.25 c 1
 13.1685 126.102 29 126 45.5 128.75 c 1
 65.0611 133.274 80.75 159.75 112.25 160 c 1
 133.353 159.548 152 144 164 129.75 c 9
 163.915 -44.4199 l 17
 159.59 -31.7529 161.219 -18.3369 158.665 -5.66992 c 1
 152.665 7.08008 134.579 21.5244 111.665 23.3301 c 1
 79.2109 21.2725 74.165 -3.66992 45.915 -9.16992 c 1
 23.915 -12.9199 -3.30859 2.11035 0.165039 19.3301 c 9
 0 191 l 17
EndSplineSet
EndChar
StartChar: _0027
Encoding: 5 71 5
Width: 164
VWidth: 2048
Flags: HW
TeX: 0 0 0 0
HStem: -409 15 -94 15 221 15 536 15
Fore
164 191 m 17
 158.41 172.99 161.23 161.341 159.5 146.25 c 1
 150.831 126.103 135 126 118.5 128.75 c 1
 98.9385 133.274 83.25 159.75 51.75 160 c 1
 30.6465 159.548 12 144 0 129.75 c 9
 0.000976562 -41.5771 l 17
 4.32617 -28.9102 2.69727 -15.4941 5.25098 -2.82715 c 1
 11.251 9.92285 29.3369 24.3672 52.251 26.1729 c 1
 84.7041 24.1152 89.751 -0.827148 118.001 -6.32715 c 1
 140.001 -10.0771 167.225 4.95312 163.751 22.1729 c 9
 164 191 l 17
EndSplineSet
EndChar
StartChar: _0006
Encoding: 6 72 6
Width: 164
VWidth: 2048
Flags: HW
TeX: 0 0 0 0
HStem: -409 15 -94 15 221 15 536 15
Fore
0 371 m 9
 0 1 l 17
 33 -39 101 -55 164 -63 c 9
 164 109.667 l 17
 164 130.333 108.253 173.332 32 169 c 9
 31.5 94 l 17
 87.9014 93.7178 108.845 73.7666 129 54 c 1
 143.333 26.6667 142 20 142.5 -6 c 5
 85.5 0 46.7373 15.5322 22 52 c 9
 22.5 389.5 l 17
 15 389.5 10.5 385.5 0 371 c 9
EndSplineSet
EndChar
StartChar: queue
Encoding: 7 153 7
Width: 22
VWidth: 2048
Flags: HW
TeX: 0 0 0 0
HStem: -409 15 -94 15 221 15 536 15
Fore
0 -165.5 m 9
 0 -5 l 25
 22 -5 l 25
 22 -157.5 l 17
 17.5928 -163.278 8.15723 -163.709 0 -165.5 c 9
EndSplineSet
EndChar
StartChar: _0032
Encoding: 8 74 8
Width: 82
VWidth: 2048
Flags: HW
TeX: 0 0 0 0
HStem: -409 15 -94 15 221 15 536 15
Fore
38.75 136 m 1
 45.166 129.083 74 93 82 83.5 c 1
 70 65.583 55.25 42.5 44.5 23.25 c 1
 32.166 31.583 5.5 64.417 0 80 c 1
 3.33398 91.917 31.4365 128.833 38.75 136 c 1
EndSplineSet
EndChar
StartChar: _0011
Encoding: 9 75 9
Width: 19
VWidth: 2048
Flags: HW
TeX: 0 0 0 0
HStem: -409 15 -94 15 221 15 536 15
Fore
0 550.999 m 25
 19 551 l 25
 18.9912 -408.997 l 25
 0 -409.002 l 29
 0 550.999 l 25
EndSplineSet
EndChar
StartChar: _0008
Encoding: 10 76 10
Width: 152
VWidth: 2048
Flags: HW
TeX: 0 0 0 0
HStem: -409 15 -94 15 221 15 536 15
Fore
152.337 553.333 m 1
 152.337 586.678 122.5 613.998 75 612.998 c 1
 49 612.998 17 597.998 17 572.998 c 1
 17 510.498 124.5 530.998 120 561.998 c 1
 152.5 495.998 46 458 0 418.998 c 1
 67 439 152.337 497.678 152.337 553.333 c 1
EndSplineSet
EndChar
StartChar: _0001
Encoding: 11 77 11
Width: 140
VWidth: 2048
Flags: HW
TeX: 0 0 0 0
HStem: -409 15 -94 15 221 15 536 15
Fore
0 380.5 m 9
 0 74.5 l 17
 0 51.167 25 12.5 63.333 10.6699 c 0
 105.336 8.66463 140 19.667 140 27.9941 c 9
 140 27.9941 141.667 167.667 138.334 173 c 1
 98.334 163.657 63.374 168.845 55.667 170.665 c 0
 22.499 178.502 22 224.161 22 224.161 c 10
 22 236.667 l 18
 23 236.667 18.8457 279.427 55.333 289.834 c 0
 62.333 291.831 99.334 294.679 138.334 286.333 c 1
 141.667 296.667 140 378.667 140 424.5 c 1
 131.333 431.333 101.415 447.478 60 440 c 0
 24 433.5 0 400.667 0 380.5 c 9
EndSplineSet
EndChar
StartChar: _0023
Encoding: 12 78 12
Width: 164
VWidth: 2048
Flags: HW
TeX: 0 0 0 0
HStem: -409 15 -94 15 221 15 536 15
Fore
141.996 -26.668 m 1
 142 -4 112.667 8.66667 82.001 9.33301 c 1
 47.001 9.33301 15 0.65625 0 -10 c 1
 0 32 0 150 0 150 c 0
 20 161 49.417 166 82 166 c 24
 114.583 166 144 158 164 150 c 9
 164 87.5996 164 -10 164 -10 c 0
 164 -17.3333 164 -217.334 164 -220.668 c 1
 145.333 -220.667 141.996 -212.293 141.996 -212.293 c 25
 141.996 -26.668 l 1
EndSplineSet
EndChar
StartChar: _0025
Encoding: 13 79 13
Width: 164
VWidth: 2048
Flags: W
TeX: 0 0 0 0
HStem: -409 15 -94 15 221 15 536 15
Fore
22.0039 -26.668 m 1
 22 -4 51.333 8.66699 81.999 9.33301 c 1
 116.999 9.33301 149 0.65625 164 -10 c 1
 164 32 164 150 164 150 c 0
 144 161 114.583 166 82 166 c 24
 49.417 166 20 158 0 150 c 9
 0 87.5996 0 -10 0 -10 c 0
 0 -17.333 0 -217.334 0 -220.668 c 1
 18.667 -220.667 22.0039 -212.293 22.0039 -212.293 c 25
 22.0039 -26.668 l 1
EndSplineSet
EndChar
StartChar: _0009
Encoding: 14 73 14
AltUni: 80
Width: 19
VWidth: 2048
Flags: HW
TeX: 0 0 0 0
HStem: -409 15 -94 15 221 15 536 15
Fore
0 359.128 m 9
 0.00292969 719.984 l 25
 18.999 720.021 l 25
 19 352.431 l 17
 6.04348 352.565 2.43478 355.609 0 359.128 c 9
EndSplineSet
EndChar
StartChar: _0010
Encoding: 15 81 15
Width: 19
VWidth: 2048
Flags: HW
TeX: 0 0 0 0
HStem: -409 15 -94 15 221 15 536 15
Fore
0 -296.375 m 13
 0 383.125 l 21
 3.87305 385.802 10.75 386.375 19 386.5 c 13
 19 -293.375 l 21
 14.875 -293.5 5 -293.375 0 -296.375 c 13
EndSplineSet
EndChar
StartChar: _0024
Encoding: 16 83 16
Width: 164
VWidth: 2048
Flags: HW
TeX: 0 0 0 0
HStem: -409 15 -94 15 221 15 536 15
Fore
22.0039 -26.668 m 1
 22 -4 51.333 8.66699 81.999 9.33301 c 1
 116.999 9.33301 149 0.65625 164 -10 c 1
 164 32 164 150 164 150 c 0
 144 161 114.583 166 82 166 c 24
 49.417 166 20 158 0 150 c 9
 0 87.5996 0 -10 0 -10 c 0
 0 -17.333 0 -361.666 0 -365 c 5
 18.667 -364.999 22.0049 -356.286 22.0049 -356.286 c 25
 22.0039 -26.668 l 1
EndSplineSet
EndChar
StartChar: pesdeminutus
Encoding: 17 84 17
Width: 164
VWidth: 2048
Flags: HW
TeX: 0 0 0 0
HStem: -409 15 -94 15 221 15 536 15
Fore
0 -10.1777 m 1
 0 149.998 l 1
 8 136 23 123.157 31.1973 117.771 c 0
 50.8242 104.875 80.6316 105.482 99 109.5 c 0
 115 113 135 134.5 142 144.375 c 1
 142 176.727 142.004 156.001 142 176.672 c 1
 164 176.672 141.999 176.673 163.999 176.673 c 1
 163.999 -5.19922 l 1
 144 -19.5 116.33 -32.8232 102.5 -36.5 c 0
 86.0557 -40.8721 43.333 -40.8418 28.667 -34.1758 c 0
 22.418 -31.3359 3.33301 -19.5098 0 -10.1777 c 1
EndSplineSet
EndChar
StartChar: auctusd1
Encoding: 18 85 18
Width: 164
VWidth: 2048
Flags: W
TeX: 0 0 0 0
HStem: -409 15 -94 15 221 15 536 15
Fore
0 160.67 m 1
 22.001 160.664 l 0
 22 152.75 22 160.688 21.999 152.666 c 1
 33.0977 155.382 58.8479 159.316 79.25 158 c 1
 100.746 156.818 123.293 142.362 140 124.791 c 0
 151.56 112.633 160.323 71.7822 164.007 60.0078 c 9
 164 -96 l 1
 159.353 -83.1748 147.147 -39.1311 132 -24.5741 c 0
 114.552 -7.80614 94.2002 1.92969 76 3 c 0
 41.0605 5.05566 14.9932 0.648438 -0.00683594 -10.0078 c 1
 0 160.67 l 1
EndSplineSet
EndChar
StartChar: auctusa1
Encoding: 19 86 19
Width: 164
VWidth: 2048
Flags: W
TeX: 0 0 0 0
HStem: -409 15 -94 15 221 15 536 15
Fore
0 -10 m 1
 0 161.5 l 1
 0 161.5 0 161.5 22 161.5 c 1
 22 146.062 22 159.5 22 144 c 1
 33.5 139.5 46 137 64 138 c 0
 82.7738 139.043 117.585 160.223 133 177 c 0
 143.667 188.61 159 232 164 251 c 9
 164 79 l 1
 160.674 59.6748 149.336 34.3379 141 24 c 0
 127.283 6.99023 84.9521 -10.4482 64 -12 c 0
 50.0889 -13.0303 12 -14 0 -10 c 1
EndSplineSet
EndChar
StartChar: mdeminutus
Encoding: 20 87 20
Width: 197
VWidth: 2048
Flags: HW
TeX: 0 0 0 0
HStem: -409 15 -94 15 221 15 536 15
Fore
197 90.001 m 13
 197 -69.999 l 29
 188.42 -69.999 175 -69.999 175 -69.999 c 4
 152.667 -22.001 88.0029 -6.33105 55.334 -5.33301 c 0
 46.6738 -5.06836 29 -8.5 21.9971 -21.5 c 0
 21.9971 -21.5 8.5791 -21.5 0 -21.5 c 25
 0 142.666 l 1
 11 147.666 16.1455 152.186 37.999 152.664 c 0
 106.499 154.164 167.02 124.329 197 90.001 c 13
EndSplineSet
EndChar
StartChar: _0007
Encoding: 21 88 21
Width: 201
VWidth: 2048
Flags: HW
TeX: 0 0 0 0
HStem: -409 15 -94 15 221 15 536 15
Fore
0 382 m 9
 0 -53 l 17
 51 -47 116 -45 170 0 c 1
 170 13 169 19 169 59 c 1
 111 12 70 12 22 5 c 9
 22 79 l 17
 68 113 106.103 115.761 179 126 c 9
 179 -244 l 17
 186.675 -242.17 195.761 -243.79 201 -236 c 9
 201 185 l 17
 117 177 81 177 22 140 c 9
 22 393 l 17
 14.6667 390.185 7.33334 390.885 0 382 c 9
EndSplineSet
EndChar
StartChar: _0002
Encoding: 22 89 22
Width: 321
VWidth: 2048
Flags: HW
TeX: 0 0 0 0
HStem: -409 15 -94 15 221 15 536 15
Fore
129.995 131.999 m 1
 129.999 154.667 114.666 168.334 84 169 c 1
 49 169 15 165.5 0 155 c 1
 0 312 l 1
 21 324 56.4727 327.644 93 325 c 24
 117.775 323.207 135.499 320.499 151.999 300.999 c 9
 151.999 238.599 151.999 140.999 151.999 140.999 c 0
 151.999 133.666 152 -54.666 152 -58 c 1
 133.333 -57.999 129.995 -53.626 129.995 -53.626 c 25
 129.995 131.999 l 1
181 389.006 m 9
 181 52.5059 l 17
 181 29.1729 209 6.21973 244.333 5.17578 c 0
 269.289 4.4375 321 14.1729 321 22.5 c 9
 321 22.5 322.667 162.173 319.334 167.506 c 1
 279.334 158.163 244.374 163.351 236.667 165.171 c 0
 203.499 173.008 203 218.667 203 218.667 c 10
 203 231.173 l 18
 204 231.173 199.846 273.933 236.333 284.34 c 0
 243.333 286.337 280.334 289.185 319.334 280.839 c 1
 322.667 291.173 321 373.173 321 419.006 c 1
 312.333 425.839 283 437.173 241 434.506 c 0
 215.718 432.9 181 409.173 181 389.006 c 9
EndSplineSet
EndChar
StartChar: _0063
Encoding: 23 90 23
Width: 85
VWidth: 2048
Flags: HW
TeX: 0 0 0 0
HStem: -409 15 -94 15 221 15 536 15
Fore
63 -345.5 m 5
 63 -7 l 5
 59 3.5 25 -27.5 3 -37.5 c 5
 0 -27.5 0.279297 112.5 0 122.5 c 5
 -0.329102 141.075 78 185.5 85 169 c 5
 85 -333.5 l 6
 85 -338.5 63 -345.5 63 -345.5 c 5
EndSplineSet
EndChar
StartChar: _0064
Encoding: 24 91 24
Width: 85
VWidth: 2048
Flags: HW
TeX: 0 0 0 0
HStem: -409 15 -94 15 221 15 536 15
Fore
63 -240.5 m 5
 63 -17 l 5
 59 -6.5 25 -37.5 3 -47.5 c 5
 0 -37.5 0.279297 102.5 0 112.5 c 5
 -0.329102 131.075 78 175.5 85 159 c 5
 85 -228.5 l 6
 84.9746 -237.485 63 -240.5 63 -240.5 c 5
EndSplineSet
EndChar
StartChar: _0060
Encoding: 25 92 25
Width: 85
VWidth: 2048
Flags: HW
TeX: 0 0 0 0
HStem: 854.5 15 539.5 15 224.5 15 -90.5 15
Fore
63 478.5 m 5
 63 140 l 5
 59 129.5 25 160.5 3 170.5 c 5
 0 160.5 0.279297 20.5 0 10.5 c 5
 -0.329102 -8.0752 78 -52.5 85 -36 c 5
 85 466.5 l 6
 85 471.5 63 478.5 63 478.5 c 5
EndSplineSet
EndChar
StartChar: _0061
Encoding: 26 93 26
Width: 85
VWidth: 2048
Flags: HW
TeX: 0 0 0 0
HStem: 957.5 15 642.5 15 327.5 15 12.5 15
Fore
63 370.5 m 5
 63 147 l 5
 59 136.5 25 167.5 3 177.5 c 5
 0 167.5 0.279297 27.5 0 17.5 c 5
 -0.329102 -1.0752 78 -45.5 85 -29 c 5
 85 358.5 l 6
 84.9746 367.485 63 370.5 63 370.5 c 5
EndSplineSet
EndChar
StartChar: base2
Encoding: 27 94 27
Width: 164
VWidth: 2048
Flags: HW
TeX: 0 0 0 0
HStem: -409 15 -94 15 221 15 536 15
Fore
164 -21.5 m 29
 155.42 -21.5 142 -21.5 142 -21.5 c 4
 137.5 -9.5 112 5.5 76 5.5 c 4
 46.5 5.5 15 0.65625 0 -10 c 5
 0 146 l 5
 20 157 49.417 162 82 162 c 28
 114.583 162 144 154 164 146 c 13
 164 -21.5 l 29
EndSplineSet
EndChar
StartChar: base4
Encoding: 28 95 28
Width: 164
VWidth: 2048
Flags: HW
TeX: 0 0 0 0
HStem: -409 15 -94 15 221 15 536 15
Fore
0 -21.5 m 25
 0 146 l 17
 20 154 49.417 162 82 162 c 24
 114.583 162 144 157 164 146 c 1
 164 -10 l 1
 149 0.65625 117.5 5.5 88 5.5 c 0
 52 5.5 26.5 -9.5 22 -21.5 c 0
 22 -21.5 8.58008 -21.5 0 -21.5 c 25
EndSplineSet
EndChar
StartChar: base7
Encoding: 29 96 29
Width: 164
VWidth: 2048
Flags: HW
TeX: 0 0 0 0
HStem: -409 15 -94 15 221 15 536 15
Fore
0.00683594 151.674 m 5
 22.0078 151.668 l 4
 29.6738 155.008 51.3398 162.008 82 162 c 4
 114.583 161.992 144 154 164 146 c 13
 163.993 -10.0078 l 5
 148.993 0.950195 117.993 8.99219 81.9932 8.99219 c 4
 46.9932 8.99219 14.9932 0.648438 -0.00683594 -10.0078 c 5
 0.00683594 151.674 l 5
EndSplineSet
EndChar
StartChar: base5
Encoding: 30 97 30
Width: 164
VWidth: 2048
Flags: HW
TeX: 0 0 0 0
HStem: -409 15 -94 15 221 15 536 15
Fore
163.993 151.674 m 1
 163.993 -10.0078 l 1
 148.993 0.648438 116.993 8.99219 81.9932 8.99219 c 0
 45.9932 8.99219 14.9932 0.950195 -0.00683594 -10.0078 c 1
 0 146 l 21
 20 154 49.417 161.992 82 162 c 0
 112.66 162.008 134.326 155.008 141.992 151.668 c 0
 163.993 151.674 l 1
EndSplineSet
EndChar
StartChar: base3
Encoding: 31 98 31
Width: 164
VWidth: 2048
Flags: HW
TeX: 0 0 0 0
HStem: -409 15 -94 15 221 15 536 15
Fore
164 146 m 9
 164 -21.5 l 25
 155.42 -21.5 142 -21.5 142 -21.5 c 4
 136.333 -11 118.002 5.66667 82.002 5.66602 c 0
 46.002 5.66536 26.4971 -9.5 21.9971 -21.5 c 0
 0 -21.5 l 25
 0 146 l 1
 20 157 49.417 162 82 162 c 24
 114.583 162 144 154 164 146 c 9
EndSplineSet
EndChar
StartChar: base6
Encoding: 32 99 32
Width: 164
VWidth: 2048
Flags: HW
TeX: 0 0 0 0
HStem: -409 15 -94 15 221 15 536 15
Fore
141.992 151.668 m 0
 163.993 151.674 l 1
 163.993 -10.0078 l 1
 148.993 0.648438 116.993 8.99219 81.9932 8.99219 c 0
 45.9932 8.99219 14.9932 0.950195 -0.00683594 -10.0078 c 1
 0 151.7 l 1
 22.001 151.7 l 0
 29.667 155.04 51.333 162.084 81.9932 162.076 c 0
 114.576 162.068 134.326 155.008 141.992 151.668 c 0
EndSplineSet
EndChar
StartChar: line2
Encoding: 33 100 33
Width: 22
VWidth: 2048
Flags: HW
TeX: 0 0 0 0
HStem: -409 15 -94 15 221 15 536 15
Fore
0 -11.5 m 25
 0 146 l 25
 22 146 l 25
 22 -11.5 l 25
 0 -11.5 l 25
EndSplineSet
EndChar
StartChar: line3
Encoding: 34 101 34
Width: 22
VWidth: 2048
Flags: HW
TeX: 0 0 0 0
HStem: -420.5 15 -105.5 15 209.5 15 524.5 15
Fore
0 -11.5 m 25
 0 303.5 l 25
 22 303.5 l 25
 22 -11.5 l 25
 0 -11.5 l 25
EndSplineSet
EndChar
StartChar: line4
Encoding: 35 102 35
Width: 22
VWidth: 2048
Flags: HW
TeX: 0 0 0 0
HStem: -420.5 15 -105.5 15 209.5 15 524.5 15
Fore
0 -11.5 m 25
 0 453.5 l 25
 22 453.5 l 25
 22 -11.5 l 25
 0 -11.5 l 25
EndSplineSet
EndChar
StartChar: line5
Encoding: 36 103 36
Width: 22
VWidth: 2048
Flags: HW
TeX: 0 0 0 0
HStem: -420.5 15 -105.5 15 209.5 15 524.5 15
Fore
0 -11.5 m 25
 0 619.5 l 25
 22 619.5 l 25
 22 -11.5 l 25
 0 -11.5 l 25
EndSplineSet
EndChar
StartChar: vsbase
Encoding: 37 104 37
Width: 164
VWidth: 2048
Flags: HW
TeX: 0 0 0 0
HStem: -409 15 -94 15 221 15 536 15
Fore
22.0039 -26.668 m 1
 22.0039 -212.293 l 25
 22.0039 -212.293 18.667 -220.667 0 -220.668 c 1
 0 -217.334 0 -17.333 0 -10 c 0
 0 -10 0 87.5996 0 150 c 17
 20 158 49.417 166 82 166 c 24
 114.583 166 144 161 164 150 c 0
 164 150 164 22 164 -20 c 1
 153.375 -19.875 164 -20 142 -20 c 1
 140.625 -12.125 132.583 -1.72852 127 0 c 1
 114 8 103.563 9.49736 81.999 9.33301 c 1
 51.333 8.66699 22 -4 22.0039 -26.668 c 1
EndSplineSet
EndChar
StartChar: vbase
Encoding: 38 -1 38
Width: 164
VWidth: 2048
Flags: HW
TeX: 0 0 0 0
HStem: -409 15 -94 15 221 15 536 15
Fore
141.996 -26.668 m 1
 142 -4 112.667 8.66699 82.001 9.33301 c 1
 60.4375 9.49707 50 8 37 0 c 1
 31.417 -1.72852 23.375 -12.125 22 -20 c 1
 0 -20 10.625 -19.875 0 -20 c 1
 0 22 0 150 0 150 c 0
 20 161 49.417 166 82 166 c 24
 114.583 166 144 158 164 150 c 9
 164 87.5996 164 -10 164 -10 c 0
 164 -17.333 164 -217.334 164 -220.668 c 1
 145.333 -220.667 141.996 -212.293 141.996 -212.293 c 25
 141.996 -26.668 l 1
EndSplineSet
EndChar
StartChar: vlbase
Encoding: 39 -1 39
Width: 164
VWidth: 2048
Flags: HW
TeX: 0 0 0 0
HStem: -409 15 -94 15 221 15 536 15
Fore
22.0039 -26.668 m 1
 21.998 -356.617 l 29
 21.998 -356.617 18.6611 -364.991 -0.00585938 -364.992 c 5
 -0.00585938 -361.658 0 -17.333 0 -10 c 0
 0 -10 0 87.5996 0 150 c 17
 20 158 49.417 166 82 166 c 24
 114.583 166 144 161 164 150 c 0
 164 150 164 22 164 -20 c 1
 153.375 -19.875 164 -20 142 -20 c 1
 140.625 -12.125 132.583 -1.72852 127 0 c 1
 114 8 103.563 9.49736 81.999 9.33301 c 1
 51.333 8.66699 22 -4 22.0039 -26.668 c 1
EndSplineSet
EndChar
StartChar: qbase
Encoding: 40 -1 40
Width: 164
VWidth: 2048
Flags: HW
TeX: 0 0 0 0
HStem: -409 15 -94 15 221 15 536 15
Fore
0.155273 154.667 m 1
 -14.7559 152.207 -8.11914 105.713 -6.39941 90.001 c 1
 4.00293 -5.59961 l 1
 7.6 -20.4 9.06836 -50.6641 28.4043 -53.998 c 1
 51.6 -47.2 38.2695 10.332 55.5986 22 c 1
 72.2695 8.66602 58.6667 -30 86.0068 -34.001 c 1
 114 -30 100.995 32.9961 117.003 40.999 c 1
 134.667 34 120.332 -1.00781 144.336 -5.66699 c 1
 165.667 -1 164 17.6667 164.004 35.333 c 1
 164 171.6 l 1
 148.4 172 155.2 172 143.997 172.006 c 1
 144 159.2 144 160.4 144 146.666 c 1
 126.988 151.666 136.667 204 117.161 203.669 c 1
 98 204 101.333 122.667 87.1562 114.5 c 1
 75.3333 120 78 183.333 57.165 183.335 c 1
 34.6667 183.333 44.5117 112.303 30.001 102.803 c 1
 18.5117 112.303 16.7998 155.6 0.155273 154.667 c 1
EndSplineSet
EndChar
StartChar: obase
Encoding: 41 -1 41
Width: 164
VWidth: 2048
Flags: HW
TeX: 0 0 0 0
HStem: -409 15 -94 15 221 15 536 15
Fore
164 157.331 m 9
 164 22.1729 l 17
 164 4.5 140.001 -10.0771 118.001 -6.32715 c 1
 89.751 -0.827148 84.7041 24.1152 52.251 26.1729 c 1
 29.3369 24.3672 11.251 9.92383 5.25098 -2.82617 c 1
 2.69727 -15.4932 4.3252 -13.9941 0 -26.6611 c 9
 0 129.75 l 17
 12 144 30.6465 159.548 51.75 160 c 1
 83.25 159.75 98.9385 133.274 118.5 128.75 c 1
 135 126 139.333 134.667 141.992 141.999 c 1
 142 149.455 142 149.333 141.998 157.333 c 5
 151.333 157.5 147.333 157.333 164 157.331 c 9
EndSplineSet
EndChar
StartChar: pbase
Encoding: 42 -1 42
Width: 164
VWidth: 2048
Flags: HW
TeX: 0 0 0 0
HStem: -409 15 -94 15 221 15 536 15
Fore
163.993 148.674 m 1
 163.993 -10.0078 l 1
 144.5 -17.5 131.5 -22.5 96.5 -22.5 c 0
 60.5 -22.5 16 -16.5 -0.00683594 -10.0078 c 1
 0 143 l 17
 15 138.5 51 129 95 133.5 c 0
 120.543 136.112 134 142.5 141.992 148.668 c 0
 163.993 148.674 l 1
EndSplineSet
EndChar
StartChar: idebilis
Encoding: 43 -1 43
Width: 110
VWidth: 2048
Flags: HW
TeX: 0 0 0 0
HStem: -409 15 -94 15 221 15 536 15
Fore
110 147 m 1
 110 16 l 5
 100 24.3333 82.6665 27.9905 55.667 28.335 c 0
 29.6667 28.6667 7 24 0 16 c 1
 0 119 l 17
 10 124 30.6667 127 54.0039 127 c 0
 69.3333 127 85.667 125.337 88 124 c 0
 88.002 146.994 l 1
 110 147 l 1
EndSplineSet
EndChar
StartChar: deminutus
Encoding: 44 -1 44
Width: 110
VWidth: 2048
Flags: HW
TeX: 0 0 0 0
HStem: -409 15 -94 15 221 15 536 15
Fore
110 147 m 1
 110 16 l 1
 104.5 11.5 89 6 69 5 c 0
 43.0303 3.70117 14.5 7 0 16 c 1
 0 119 l 17
 23 111 47.5 109 63 109.5 c 0
 72.4951 109.807 86.5 119 88 124 c 0
 88.002 146.994 l 1
 110 147 l 1
EndSplineSet
EndChar
StartChar: rdeminutus
Encoding: 45 -1 45
Width: 110
VWidth: 2048
Flags: HW
TeX: 0 0 0 0
HStem: 545.728 15 230.728 15 -84.2722 15 -399.272 15
Fore
110 -21 m 5
 88.002 -20.9941 l 5
 88 27.7275 l 0
 86.5 32.7275 72.4951 41.9209 63 42.2275 c 0
 47.5 42.7275 23 40.7275 0 32.7275 c 9
 0 135.728 l 1
 14.5 144.728 43.0303 148.026 69 146.728 c 0
 89 145.728 104.5 140.228 110 135.728 c 1
 110 -21 l 5
EndSplineSet
EndChar
StartChar: auctusd2
Encoding: 46 -1 46
Width: 164
VWidth: 2048
Flags: W
TeX: 0 0 0 0
HStem: -409 15 -94 15 221 15 536 15
Fore
0 146.001 m 1
 17.2 154.4 55.9994 159.987 79.25 158 c 1
 100.746 156.818 123.293 142.362 140 124.791 c 0
 151.56 112.633 160.323 71.7822 164.007 60.0078 c 9
 164 -96 l 1
 159.353 -83.1748 147.147 -39.1311 132 -24.5741 c 0
 114.552 -7.80614 94.2002 1.92969 76 3 c 0
 53.6419 4.31543 36.5176 2.72168 22 -1.2002 c 1
 22 -18.0909 22 -1.27273 22.0078 -18.0049 c 1
 0 -18 22 -18 0 -18.0059 c 1
 0 146.001 l 1
EndSplineSet
EndChar
StartChar: auctusa2
Encoding: 47 -1 47
Width: 164
VWidth: 2048
Flags: HW
TeX: 0 0 0 0
HStem: -409 15 -94 15 221 15 536 15
Fore
0.00683594 151.674 m 5
 0.00683594 151.674 33.3398 138.008 64 138 c 0
 82.8027 137.995 117.585 160.223 133 177 c 0
 143.667 188.61 159 232 164 251 c 9
 164 79 l 1
 160.674 59.6748 149.336 34.3379 141 24 c 0
 127.283 6.99023 84.9521 -10.4482 64 -12 c 0
 50.0889 -13.0303 33.999 -10.8184 21.999 -6.81836 c 1
 22.0215 -19.1533 22 -11.1667 22 -23 c 1
 3.33333 -23 21.8333 -23 0 -22.9932 c 1
 0.00683594 151.674 l 5
EndSplineSet
EndChar
StartChar: porrectus1
Encoding: 48 -1 48
Width: 490
VWidth: 2048
Flags: HW
TeX: 0 0 0 0
HStem: -409 15 -94 15 221 15 536 15
Fore
0 -16 m 1
 0 155 l 2
 0 159.739 3.67916 157.34 7 154.75 c 0
 143.49 48.2977 249.871 -40.1758 468 -51.875 c 1
 468 -8.875 468 -51.875 468 -9 c 1
 478.125 -9 485.281 -8.90039 490 -9 c 1
 490 -189 l 2
 490 -191.229 489.69 -190.612 487.76 -190.591 c 0
 254 -188 136.5 -110 0 -16 c 1
EndSplineSet
EndChar
StartChar: porrectus2
Encoding: 49 -1 49
Width: 575
VWidth: 2048
Flags: HW
TeX: 0 0 0 0
HStem: -409 15 -94 15 221 15 536 15
Fore
0 -16 m 1
 0 155 l 2
 0 159.739 4.39911 158.063 7 154.75 c 0
 181.5 -67.5 330 -189 553 -219.875 c 5
 553 -176.875 553 -174.875 553 -132 c 5
 563.125 -132 570.281 -131.9 575 -132 c 5
 575 -357 l 6
 575 -359.229 574.68 -358.787 572.76 -358.591 c 4
 322.5 -333 154.5 -201 0 -16 c 1
EndSplineSet
EndChar
StartChar: porrectus3
Encoding: 50 -1 50
Width: 650
VWidth: 2048
Flags: HW
TeX: 0 0 0 0
HStem: -409 15 -94 15 221 15 536 15
Fore
0 -16 m 1
 0 155 l 2
 0 159.739 5.08372 158.501 7 154.75 c 0
 130 -86 270 -314 628 -362 c 1
 628 -319 628 -292.875 628 -250 c 1
 638.125 -250 645.281 -249.9 650 -250 c 1
 650 -479 l 2
 650 -481.229 649.661 -480.926 647.76 -480.591 c 0
 202 -402 116 -240 0 -16 c 1
EndSplineSet
EndChar
StartChar: porrectus4
Encoding: 51 -1 51
Width: 740
VWidth: 2048
Flags: HW
TeX: 0 0 0 0
HStem: -409 15 -94 15 221 15 536 15
Fore
0 -25 m 1
 0 172.5 l 2
 0 177.239 5.27441 176.092 7 172.25 c 0
 134 -110.5 367.502 -459.831 718.002 -536.331 c 5
 718.002 -493.331 718 -492.875 718 -450 c 1
 728.125 -450 735.281 -449.9 740 -450 c 1
 740 -679 l 2
 740 -681.229 739.615 -681.119 737.76 -680.591 c 0
 270 -547.5 75 -217.5 0 -25 c 1
EndSplineSet
EndChar
StartChar: porrectus5
Encoding: 52 -1 52
Width: 931
VWidth: 2048
Flags: HW
TeX: 0 0 0 0
HStem: -409 15 -94 15 221 15 536 15
Fore
0 -16 m 1
 0 155 l 2
 0 159.739 5.3553 158.627 7 154.75 c 0
 122.5 -117.5 382.5 -591 909 -711 c 1
 909 -668 909 -654.875 909 -612 c 1
 919.125 -612 926.281 -611.9 931 -612 c 1
 931 -841 l 2
 931 -843.229 930.646 -842.992 928.76 -842.591 c 0
 315 -712 70 -240 0 -16 c 1
EndSplineSet
EndChar
StartChar: porrectusflexus1
Encoding: 53 -1 53
Width: 340
VWidth: 2048
Flags: HW
TeX: 0 0 0 0
HStem: -409 15 -94 15 221 15 536 15
Fore
0 -16 m 1
 0 155 l 2
 0 159.739 3.67916 157.34 7 154.75 c 0
 143.49 48.2977 204 -6.125 318 -10 c 1
 318 33 318 -33.875 318 9 c 1
 328.125 9 335.281 9.09961 340 9 c 1
 340 -147.125 l 2
 340 -149.354 339.69 -148.775 337.76 -148.716 c 0
 187.5 -144.125 136.5 -110 0 -16 c 1
EndSplineSet
EndChar
StartChar: porrectusflexus2
Encoding: 54 -1 54
Width: 428
VWidth: 2048
Flags: HW
TeX: 0 0 0 0
HStem: -409 15 -94 15 221 15 536 15
Fore
0 -16 m 1
 0 155 l 2
 0 159.739 4.76959 158.322 7 154.75 c 0
 98 9 278 -160.625 406 -166 c 1
 406 -123 406 -188.375 406 -145.5 c 5
 416.125 -145.5 423.281 -145.4 428 -145.5 c 5
 428 -295.5 l 2
 428 -297.729 427.688 -297.188 425.76 -297.091 c 0
 265 -289 107 -166 0 -16 c 1
EndSplineSet
EndChar
StartChar: porrectusflexus3
Encoding: 55 -1 55
Width: 586
VWidth: 2048
Flags: HW
TeX: 0 0 0 0
HStem: -409 15 -94 15 221 15 536 15
Fore
0 -16 m 1
 0 155 l 2
 0 159.739 5.05344 158.485 7 154.75 c 0
 96 -16 328 -284 564 -328.5 c 1
 564 -285.5 564 -350.875 564 -308 c 1
 574.125 -308 581.281 -307.9 586 -308 c 1
 586 -458 l 2
 586 -460.229 585.679 -459.792 583.76 -459.591 c 0
 282 -428 86 -170 0 -16 c 1
EndSplineSet
EndChar
StartChar: porrectusflexus4
Encoding: 56 -1 56
Width: 670
VWidth: 2048
Flags: HW
TeX: 0 0 0 0
HStem: -409 15 -94 15 221 15 536 15
Fore
0 -16 m 1
 0 155 l 2
 0 159.739 5.13671 158.527 7 154.75 c 0
 109 -52 374 -402 648 -447.5 c 1
 648 -404.5 648 -469.875 648 -427 c 1
 658.125 -427 665.281 -426.9 670 -427 c 1
 670 -577 l 2
 670 -579.229 669.666 -578.888 667.76 -578.591 c 4
 305 -522 98 -214 0 -16 c 1
EndSplineSet
EndChar
StartChar: porrectusflexus5
Encoding: 57 -1 57
Width: 931
VWidth: 2048
Flags: HW
TeX: 0 0 0 0
HStem: -409 15 -94 15 221 15 536 15
Fore
0 -16 m 1
 0 155 l 2
 0 159.739 5.3553 158.627 7 154.75 c 0
 122.5 -117.5 382.5 -525 909 -645 c 5
 909 -602 909 -634.875 909 -592 c 5
 919.125 -592 926.281 -591.9 931 -592 c 5
 931 -775 l 6
 931 -777.229 930.646 -776.992 928.76 -776.591 c 4
 315 -646 70 -240 0 -16 c 1
EndSplineSet
EndChar
StartChar: _1025
Encoding: 58 -1 58
Width: 164
VWidth: 2048
Flags: HW
TeX: 0 0 0 0
HStem: -409 15 -94 15 221 15 536 15
Fore
140.496 158.67 m 0
 135.996 170.67 112.667 181.997 76.667 181.997 c 0
 47.167 181.997 15.667 177.153 0.666992 166.497 c 1
 0.666992 300.497 l 1
 20.667 311.497 50.084 316.497 82.667 316.497 c 0
 115.25 316.497 144 308 164 300 c 1
 164 29.833 l 2
 164 12.167 165.667 -6.5 144.336 -11.167 c 1
 120.332 -6.50781 130.664 28.501 113 35.5 c 1
 96.9922 27.4971 110.993 -35.499 83 -39.5 c 1
 55.6602 -35.499 69.6709 5.66602 53 19 c 1
 35.6709 7.33203 52.667 -52.833 22.0029 -61.501 c 1
 2.66699 -58.167 1.99512 -28.167 0 -13.4883 c 2
 -10 89.333 l 1
 -10.6367 104.965 -16.1904 123.223 -1.1748 130.5 c 1
 14 127.333 10.667 74.5 22.1562 65 c 1
 36.667 74.5 27.502 151.498 50 151.5 c 0
 70.835 151.498 66.6768 94.5 78.5 89 c 1
 92.6768 97.167 87.0059 159.328 106.167 158.997 c 0
 125.673 159.328 114.489 118 131.5 113 c 1
 134.849 113.609 145.541 139.116 140.496 158.67 c 0
EndSplineSet
EndChar
StartChar: _0021
Encoding: 59 -1 59
Width: 164
VWidth: 2048
Flags: HW
TeX: 0 0 0 0
HStem: -409 15 -94 15 221 15 536 15
Fore
58.5 163.504 m 1
 110.666 123.337 151 86.3333 163.999 69.0176 c 5
 158.667 42.6667 117.333 0 90.0186 -22.6611 c 0
 78.4298 -32.2755 38.0059 -60.667 8.66699 -62.0029 c 1
 -6.66113 -58.667 0.00585938 -55.334 9.33105 -49.335 c 1
 52.0059 -36.001 71.3311 -2.99414 70.6709 3.33008 c 1
 62.3311 15.3389 26.666 40.6729 0 56.6709 c 1
 5.66699 68.5049 51.333 146.337 58.5 163.504 c 1
EndSplineSet
EndChar
StartChar: _0031
Encoding: 60 -1 60
Width: 164
VWidth: 2048
Flags: HW
TeX: 0 0 0 0
HStem: -409 15 -94 15 221 15 536 15
Fore
77.5 192 m 1
 90.333 178.167 148 106 164 87 c 1
 142.8 49.6 127.217 15.1973 91.6094 -20.3965 c 1
 77.2168 -37.6035 28.8 -49.6 9.99512 -48.666 c 1
 3.34201 -48.503 -3.69077 -48.4444 5.19531 -43.999 c 1
 25.9062 -32.6585 52.7103 -24.447 59.5815 -6 c 1
 35.0878 20.9024 7.55616 58.5906 0 80 c 1
 6.66699 103.833 62.873 177.667 77.5 192 c 1
EndSplineSet
EndChar
StartChar: _0022
Encoding: 61 -1 61
Width: 164
VWidth: 2048
Flags: HW
TeX: 0 0 0 0
HStem: -409 15 -94 15 221 15 536 15
Fore
141.996 -26.668 m 1
 142 -4 112.667 8.66667 82.001 9.33301 c 1
 47.001 9.33301 15 0.65625 0 -10 c 1
 0 32 0 150 0 150 c 0
 20 161 49.417 166 82 166 c 24
 114.583 166 144 158 164 150 c 9
 164 87.5996 164 -10 164 -10 c 0
 164 -17.3333 164.009 -362.003 164.009 -365.337 c 1
 145.342 -365.336 142.005 -356.962 142.005 -356.962 c 25
 141.996 -26.668 l 1
EndSplineSet
EndChar
StartChar: _0014
Encoding: 62 -1 62
Width: 61
VWidth: 2048
Flags: HW
TeX: 0 0 0 0
HStem: -219.133 9 -30.1332 9 158.867 9 347.867 9
Fore
0 63.5645 m 24
 -0.263672 80.792 13.4404 95.4268 30.6699 95.3623 c 24
 47.8721 95.2979 60.7367 80.5361 61 63.3359 c 24
 61.2646 46.0684 48.6699 30.1621 31.668 30.1631 c 0
 12.8691 30.1631 0.274745 45.6162 0 63.5645 c 24
EndSplineSet
EndChar
StartChar: _0015
Encoding: 63 -1 63
Width: 61
VWidth: 2048
Flags: HW
TeX: 0 0 0 0
HStem: -409 15 -94 15 221 15 536 15
Fore
0 373 m 24
 -0.263672 390.228 13.4404 404.862 30.6699 404.798 c 24
 47.8721 404.733 60.7363 389.972 61 372.771 c 24
 61.2646 355.504 48.6699 339.598 31.668 339.599 c 0
 12.8691 339.599 0.274414 355.052 0 373 c 24
0 67.5645 m 28
 -0.263672 84.792 13.4404 99.4268 30.6699 99.3623 c 28
 47.8721 99.2979 60.7363 84.5361 61 67.3359 c 28
 61.2646 50.0684 48.6699 34.1621 31.668 34.1631 c 4
 12.8691 34.1631 0.274414 49.6162 0 67.5645 c 28
EndSplineSet
EndChar
StartChar: _0033
Encoding: 64 -1 64
Width: 40
VWidth: 2048
Flags: HW
TeX: 0 0 0 0
HStem: -409 15 -94 15 221 15 536 15
Fore
0.125 116.375 m 17
 2.625 120.25 6.74512 123.625 20.125 123.625 c 0
 32.75 123.625 37.625 119.75 40.125 116.375 c 9
 40 -6 l 21
 36.875 -10.625 31.874 -13.249 20 -13.375 c 4
 8.25 -13.5 3.875 -11 0 -6 c 13
 0.125 116.375 l 17
EndSplineSet
EndChar
StartChar: _0013
Encoding: 65 -1 65
Width: 110
VWidth: 2048
Flags: HW
TeX: 0 0 0 0
HStem: -409 15 -94 15 221 15 536 15
Fore
110 119 m 1
 110 16 l 1
 100 24.3333 82.6665 27.9905 55.667 28.335 c 0
 29.6667 28.6667 7 24 0 16 c 1
 0 119 l 17
 10 124 32.5 127 54.0039 127 c 0
 73.184 127 98.5 125.75 110 119 c 1
EndSplineSet
EndChar
StartChar: hepisemus_base
Encoding: 66 -1 66
Width: 1
VWidth: 2048
Flags: HW
TeX: 0 0 0 0
HStem: -409 15 -94 15 221 15 536 15
Fore
0 64 m 25
 0 79 l 29
 1 79 l 25
 1 64 l 25
 0 64 l 25
EndSplineSet
EndChar
StartChar: _4097
Encoding: 67 -1 67
Width: 164
VWidth: 2048
Flags: HW
TeX: 0 0 0 0
HStem: -409 15 -94 15 221 15 536 15
Fore
0 -10.0078 m 1
 0 126.332 l 1
 66.126 106.494 123.654 117.841 142 132 c 1
 142 149 l 1
 137.5 161 112 176 76 176 c 0
 46.5 176 15 171.156 0 160.5 c 1
 0 304 l 1
 20 315 49.417 320 82 320 c 0
 114.583 320 151 312 164 299 c 1
 164 -6 l 1
 153 -16 131.5 -22.5 96.5 -22.5 c 0
 60.5 -22.5 16.0068 -16.5 0 -10.0078 c 1
EndSplineSet
EndChar
StartChar: _0062
Encoding: 68 -1 68
Width: 85
VWidth: 2048
Flags: HW
TeX: 0 0 0 0
HStem: 854.5 15 539.5 15 224.5 15 -90.5 15
Fore
63 412.5 m 5
 63 140 l 1
 59 129.5 25 160.5 3 170.5 c 1
 0 160.5 0.279297 20.5 0 10.5 c 1
 -0.329102 -8.0752 78 -52.5 85 -36 c 1
 85 400.5 l 6
 85 405.5 63 412.5 63 412.5 c 5
EndSplineSet
EndChar
StartChar: _0065
Encoding: 69 -1 69
Width: 85
VWidth: 2048
Flags: HW
TeX: 0 0 0 0
HStem: -409 15 -94 15 221 15 536 15
Fore
63 -270 m 5
 63 -7 l 1
 59 3.5 25 -27.5 3 -37.5 c 1
 0 -27.5 0.279297 112.5 0 122.5 c 1
 -0.329102 141.075 78 185.5 85 169 c 1
 85 -258 l 6
 85 -263 63 -270 63 -270 c 5
EndSplineSet
EndChar
StartChar: _0039
Encoding: 70 -1 70
Width: 99
VWidth: 1594
Flags: W
TeX: 0 0 0 0
HStem: -652.764 23.94 -150.024 23.94 352.716 23.94 855.456 23.94
Fore
22.3555 -69.8779 m 4
 9.58691 -69.8779 0.0117188 -57.1094 0.0117188 -45.9365 c 4
 0.0117188 -42.7461 0.0117188 -37.958 3.2041 -34.7656 c 5
 46.2949 56.207 l 6
 51.083 64.1865 60.6602 70.5713 71.8311 70.5713 c 4
 87.792 70.5713 98.9629 56.207 98.9629 41.8418 c 4
 98.9629 37.0547 98.9629 32.2666 95.7705 29.0742 c 5
 43.1035 -57.1094 l 5
 39.9111 -65.0898 31.9316 -69.8779 22.3555 -69.8779 c 4
EndSplineSet
EndChar
StartChar: _0069
Encoding: 71 -1 71
Width: 99
VWidth: 1594
Flags: W
TeX: 0 0 0 0
HStem: -652.764 23.94 -150.024 23.94 352.716 23.94 855.456 23.94
Fore
0.0595703 46.2236 m 4
 0.0595703 57.3965 9.63477 70.165 22.4033 70.165 c 4
 31.9795 70.165 39.959 65.377 43.1514 57.3965 c 5
 95.8184 -28.7871 l 5
 99.0107 -31.9795 99.0107 -36.7676 99.0107 -41.5547 c 4
 99.0107 -55.9199 87.8398 -70.2842 71.8789 -70.2842 c 4
 60.708 -70.2842 51.1309 -63.8994 46.3428 -55.9199 c 6
 3.25195 35.0527 l 5
 0.0595703 38.2451 0.0595703 43.0332 0.0595703 46.2236 c 4
EndSplineSet
EndChar
StartChar: _0070
Encoding: 72 -1 72
Width: 125
VWidth: 1583
Flags: W
TeX: 0 0 0 0
HStem: -664.386 23.94 -161.646 23.94 341.094 23.94 843.834 23.94
Fore
95.7607 -11.6357 m 1
 95.7607 7.51758 81.3955 21.8809 62.2441 21.8809 c 0
 43.0928 21.8809 28.7275 7.51758 28.7275 -11.6357 c 1
 0 -11.6357 l 1
 0 23.4766 27.1318 50.6104 62.2441 50.6104 c 0
 97.3564 50.6104 124.488 23.4766 124.488 -11.6357 c 1
 95.7607 -11.6357 l 1
EndSplineSet
EndChar
StartChar: _0038
Encoding: 73 -1 73
Width: 124
VWidth: 1606
Flags: W
TeX: 0 0 0 0
HStem: -641.142 23.94 -138.402 23.94 364.338 23.94 867.078 23.94
Fore
95.5166 11.623 m 1
 124.244 11.623 l 1
 124.244 -23.4893 97.1123 -50.623 62 -50.623 c 0
 26.8877 -50.623 -0.244141 -23.4893 -0.244141 11.623 c 1
 28.4834 11.623 l 1
 28.4834 -7.53027 42.8486 -21.8936 62 -21.8936 c 0
 81.1514 -21.8936 95.5166 -7.53027 95.5166 11.623 c 1
EndSplineSet
EndChar
StartChar: _0037
Encoding: 74 -1 74
Width: 124
VWidth: 1594
Flags: W
TeX: 0 0 0 0
HStem: -652.764 23.94 -150.024 23.94 352.716 23.94 855.456 23.94
Fore
62 -33.5166 m 0
 79.5557 -33.5166 95.5166 -19.1514 95.5166 0 c 0
 95.5166 17.5557 81.1514 33.5166 62 33.5166 c 0
 44.4443 33.5166 28.4834 19.1514 28.4834 0 c 0
 28.4834 -17.5557 42.8486 -33.5166 62 -33.5166 c 0
62 62.2441 m 0
 95.5166 62.2441 124.244 36.708 124.244 0 c 0
 124.244 -33.5166 98.708 -62.2441 62 -62.2441 c 0
 28.4834 -62.2441 -0.244141 -36.708 -0.244141 0 c 0
 -0.244141 33.5166 25.292 62.2441 62 62.2441 c 0
EndSplineSet
EndChar
StartChar: _0003
Encoding: 75 -1 75
Width: 140
VWidth: 2048
Flags: W
TeX: 0 0 0 0
HStem: -409 15 -94 15 221 15 536 15
Fore
0 380.5 m 9
 0 74.5 l 17
 0 51.167 25 12.5 63.333 10.6699 c 0
 105.336 8.66463 140 19.667 140 27.9941 c 9
 140 27.9941 141.667 167.667 138.334 173 c 1
 98.334 163.657 63.374 168.845 55.667 170.665 c 0
 22.499 178.502 22 224.161 22 224.161 c 10
 22 236.667 l 18
 23 236.667 18.8457 279.427 55.333 289.834 c 0
 62.333 291.831 99.334 294.679 138.334 286.333 c 1
 141.667 296.667 140 378.667 140 424.5 c 1
 131.333 431.333 101.415 447.478 60 440 c 0
 24 433.5 0 400.667 0 380.5 c 9
EndSplineSet
EndChar
StartChar: _0004
Encoding: 76 -1 76
Width: 321
VWidth: 2048
Flags: W
TeX: 0 0 0 0
HStem: -409 15 -94 15 221 15 536 15
Fore
129.995 131.999 m 1
 129.999 154.667 114.666 168.334 84 169 c 1
 49 169 15 165.5 0 155 c 1
 0 312 l 1
 21 324 56.4727 327.644 93 325 c 24
 117.775 323.207 135.499 320.499 151.999 300.999 c 9
 151.999 238.599 151.999 140.999 151.999 140.999 c 0
 151.999 133.666 152 -54.666 152 -58 c 1
 133.333 -57.999 129.995 -53.626 129.995 -53.626 c 25
 129.995 131.999 l 1
181 389.006 m 9
 181 52.5059 l 17
 181 29.1729 209 6.21973 244.333 5.17578 c 0
 269.289 4.4375 321 14.1729 321 22.5 c 9
 321 22.5 322.667 162.173 319.334 167.506 c 1
 279.334 158.163 244.374 163.351 236.667 165.171 c 0
 203.499 173.008 203 218.667 203 218.667 c 10
 203 231.173 l 18
 204 231.173 199.846 273.933 236.333 284.34 c 0
 243.333 286.337 280.334 289.185 319.334 280.839 c 1
 322.667 291.173 321 373.173 321 419.006 c 1
 312.333 425.839 283 437.173 241 434.506 c 0
 215.718 432.9 181 409.173 181 389.006 c 9
EndSplineSet
EndChar
StartChar: _0016
Encoding: 77 -1 77
Width: 108
VWidth: 2048
Flags: W
TeX: 0 0 0 0
HStem: -409 15 -94 15 221 15 536 15
Fore
0 -14 m 9
 37 76 l 17
 40.6667 82.3333 45.2422 87.001 54.0029 87 c 0
 63 86.999 68 82 71 76 c 13
 108 -16 l 17
 108 -21.1426 103.333 -22.333 99.002 -23.5 c 0
 90.8721 -25.6895 82.8571 -23.1429 80 -18 c 9
 54 40.999 l 25
 54 40.999 30.6667 -12 28 -18 c 1
 23.166 -24.5 16.5 -25.5 9 -23.5 c 0
 4.59668 -22.3252 0 -18.6667 0 -14 c 9
EndSplineSet
EndChar
StartChar: _0034
Encoding: 78 -1 78
Width: 164
VWidth: 2048
Flags: HW
TeX: 0 0 0 0
HStem: 517 15 202 15 -113 15 -428 15
Fore
25.5 22.5 m 5
 38.5 31 67.04 31.5 83 31.5 c 4
 98.96 31.5 126.5 29 138.5 23 c 5
 138.5 132 l 5
 123.681 138.84 97.1006 141 80 141 c 4
 64.04 141 40.3193 137.84 25.5 131 c 5
 25.5 22.5 l 5
82 166 m 24
 114.583 166 144 158 164 150 c 9
 164 87.5996 164 -10 164 -10 c 0
 149 0.958008 118 9 82 9 c 0
 47 9 15 0.65625 0 -10 c 1
 0 150 l 1
 20 161 49.417 166 82 166 c 24
EndSplineSet
EndChar
StartChar: _0035
Encoding: 79 -1 79
Width: 266
VWidth: 2048
Flags: HW
TeX: 0 0 0 0
HStem: -409 15 -94 15 221 15 536 15
Fore
266.006 -10.6602 m 6
 266.006 -16.3604 258.371 -20.6602 252.672 -20.6602 c 4
 246.972 -20.6602 240.672 -14.7061 240.672 -9.00586 c 6
 240.818 170.681 l 6
 240.818 176.381 247.639 181.341 253.339 181.341 c 4
 259.038 181.341 265.913 174.727 265.913 169.026 c 6
 266.006 -10.6602 l 6
25.334 -9.33398 m 2
 25.334 -15.0342 17.6992 -19.334 12 -19.334 c 0
 6.2998 -19.334 0 -13.3799 0 -7.67969 c 2
 0.146484 172.007 l 2
 0.146484 177.707 6.9668 182.667 12.667 182.667 c 0
 18.3662 182.667 25.2412 176.053 25.2412 170.353 c 2
 25.334 -9.33398 l 2
132.671 170 m 24
 165.254 170 194.671 162 214.671 154 c 9
 214.671 91.5996 214.671 -6 214.671 -6 c 0
 199.671 4.95801 168.671 13 132.671 13 c 0
 97.6709 13 65.6709 4.65625 50.6709 -6 c 1
 50.6709 36 50.6709 154 50.6709 154 c 0
 70.6709 165 100.088 170 132.671 170 c 24
EndSplineSet
EndChar
StartChar: _0036
Encoding: 80 -1 80
Width: 266
VWidth: 2048
Flags: HW
TeX: 0 0 0 0
HStem: -409 15 -94 15 221 15 536 15
Fore
266.006 -10.6602 m 2
 266.006 -16.3604 258.371 -20.6602 252.672 -20.6602 c 0
 246.972 -20.6602 240.672 -14.7061 240.672 -9.00586 c 2
 240.818 170.681 l 2
 240.818 176.381 247.639 181.341 253.339 181.341 c 0
 259.038 181.341 265.913 174.727 265.913 169.026 c 2
 266.006 -10.6602 l 2
25.334 -9.33398 m 2
 25.334 -15.0342 17.6992 -19.334 12 -19.334 c 0
 6.2998 -19.334 0 -13.3799 0 -7.67969 c 2
 0.146484 172.007 l 2
 0.146484 177.707 6.9668 182.667 12.667 182.667 c 0
 18.3662 182.667 25.2412 176.053 25.2412 170.353 c 2
 25.334 -9.33398 l 2
76.8408 23 m 1
 89.8408 31.5 118.381 32 134.341 32 c 0
 150.301 32 177.841 29.5 189.841 23.5 c 1
 189.841 132.5 l 1
 175.021 139.34 148.441 141.5 131.341 141.5 c 0
 115.381 141.5 91.6602 138.34 76.8408 131.5 c 1
 76.8408 23 l 1
134.005 168 m 24
 166.588 168 196.005 160 216.005 152 c 9
 216.005 89.5996 216.005 -8 216.005 -8 c 0
 201.005 2.95801 170.005 11 134.005 11 c 0
 99.0049 11 67.0049 2.65625 52.0049 -8 c 1
 52.0049 34 52.0049 152 52.0049 152 c 0
 72.0049 163 101.422 168 134.005 168 c 24
EndSplineSet
EndChar
StartChar: NameMe.155
Encoding: 81 -1 81
Width: 706
VWidth: 2048
Flags: HW
TeX: 0 0 0 0
HStem: -409 15 -94 15 221 15 536 15
Fore
206.925 -69.6523 m 0
 161.616 -52.828 204.018 61.5556 278.334 216 c 1
 199 216 l 1
 153 99 l 2
 148 86 141.273 66.9969 141 55 c 0
 140.5 33 135 17.5 156.5 14.5 c 1
 164.402 11.6777 161.846 5.29199 162.5 0 c 1
 15 0 l 1
 13.9604 4.33336 12.9571 8.66665 16 13 c 1
 64 15 76.7685 36.0978 139 183 c 2
 347 674 l 2
 351.75 684.75 361 685.25 367 674 c 2
 433.766 521.699 l 1
 473.572 604.556 505.803 684.391 520.25 761.5 c 0
 522.627 774.187 482.324 770.2 462.25 777.5 c 0
 440.25 785.5 434.25 795.5 434.25 819.5 c 0
 434.25 837.617 438.25 861.5 470.25 867.5 c 0
 489.027 871.021 521.518 859.958 534.25 845.5 c 0
 593.773 777.906 537.503 625.969 457.881 466.689 c 1
 616 106 l 2
 651 32 655.5 17.5 700.5 14.5 c 1
 705.99 10.6148 705.38 5.14805 706 0 c 1
 451 0 l 1
 451.189 5 449.733 10 455 15 c 1
 508 16 521 28 521 53 c 0
 521 67 514 93 502 120 c 2
 461 216 l 1
 323.905 216 l 1
 289.063 151.294 259.44 93.3475 243.25 49 c 0
 220.25 -14 230.5 -14.074 252.251 -24.665 c 0
 277.583 -36.9998 331.25 -47.667 326.91 -59.9971 c 1
 293.25 -90.333 224.917 -76.333 206.925 -69.6523 c 0
402.965 361.394 m 1
 346.145 257 l 1
 447 257 l 1
 402.965 361.394 l 1
380.198 415.368 m 1
 331 532 l 1
 216 257 l 1
 298.447 257 l 1
 380.198 415.368 l 1
EndSplineSet
EndChar
StartChar: NameMe.156
Encoding: 82 -1 82
Width: 659
VWidth: 2048
Flags: HW
TeX: 0 0 0 0
HStem: -409 15 -94 15 221 15 536 15
Fore
204 343 m 1
 352 346 438 371 438 488 c 0
 438 582 380 625 255 625 c 0
 215 625 204 617 204 589 c 2
 204 343 l 1
448.323 64.2877 m 1
 380.187 -75.4231 404.904 -72.5686 425.326 -82.5127 c 0
 450.658 -94.8475 504.325 -105.515 499.985 -117.845 c 1
 466.325 -148.181 397.992 -134.181 380 -127.5 c 0
 354.766 -118.13 358.402 -71.1455 370.575 -35.3477 c 0
 385.847 9.56305 403.686 53.6783 423.023 97.0292 c 1
 260 308 l 1
 204 306 l 1
 204 109 l 2
 204 37 217 24 294 19 c 1
 294 0 l 1
 17 0 l 1
 17 19 l 1
 92 25 102 37 102 120 c 2
 102 553 l 2
 102 624 92 635 17 643 c 1
 17 662 l 1
 293 662 l 2
 391 662 547 636 547 486 c 0
 547 348 407 327 366 319 c 1
 468.51 193.102 l 1
 559.578 376.411 663.74 545.749 693.325 703.652 c 0
 695.702 716.339 655.399 712.353 635.325 719.652 c 0
 613.325 727.652 607.325 737.652 607.325 761.652 c 0
 607.325 833.514 687.368 810.316 707.325 787.652 c 0
 798.767 683.811 616.932 380.917 496.975 158.143 c 1
 572 66 l 2
 601 32 621 22 659 19 c 1
 659 0 l 1
 498 0 l 1
 448.323 64.2877 l 1
EndSplineSet
EndChar
StartChar: NameMe.157
Encoding: 83 -1 83
Width: 697
VWidth: 2048
Flags: HW
TeX: 0 0 0 0
HStem: -409 15 -94 15 221 15 536 15
Fore
106.675 -75.1523 m 0
 81.4404 -65.7822 85.0773 -18.7979 97.25 17 c 0
 131.323 117.203 178.181 213.446 225.923 306.074 c 1
 122 538 l 2
 81.7268 627.878 70.999 645.667 21.999 647.667 c 1
 15.9766 649.238 16.0303 656.23 16 662 c 1
 255 662 l 1
 254.808 657.354 256.182 652.474 250.337 648.667 c 1
 237 648 221.674 643.333 217.674 641.333 c 0
 208.312 636.651 207 629 207 610 c 0
 207 595 215.323 572.145 248 499 c 2
 284.176 418.022 l 1
 345.526 536.473 399.928 648.868 420 756 c 0
 422.377 768.687 382.074 764.7 362 772 c 0
 340 780 334 790 334 814 c 0
 334 885.868 414.048 862.658 434 840 c 0
 505.439 758.874 410.082 556.255 307.746 365.265 c 1
 399 161 l 1
 546 528 l 2
 558 558 565 585 565 601 c 0
 565 629 547 640 492 643 c 1
 492 662 l 1
 697 662 l 1
 697 643 l 1
 649 640 637 630 605 550 c 2
 383 -11 l 1
 368 -11 l 1
 248.356 256.011 l 1
 203.109 173.094 162.904 98.0199 143 43.5 c 0
 120 -19.5 130.25 -19.5741 152.001 -30.165 c 0
 177.333 -42.4998 231 -53.167 226.66 -65.4971 c 1
 193 -95.833 124.667 -81.833 106.675 -75.1523 c 0
EndSplineSet
EndChar
StartChar: letterbar
Encoding: 84 -1 84
Width: 388
VWidth: 2048
Flags: HW
TeX: 0 0 0 0
HStem: -409 15 -94 15 221 15 536 15
Fore
20.6748 -70.1523 m 0
 -4.55957 -60.7822 -0.922852 -13.7979 11.25 22 c 0
 104.25 295.5 292.5 539.5 334 761 c 0
 336.377 773.687 296.074 769.7 276 777 c 0
 254 785 248 795 248 819 c 0
 248 837.117 252 861 284 867 c 0
 302.777 870.521 335.269 859.458 348 845 c 0
 466 711 128.932 245.53 57 48.5 c 0
 34 -14.5 44.25 -14.5742 66.001 -25.165 c 0
 91.333 -37.5 145 -48.167 140.66 -60.4971 c 1
 107 -90.833 38.667 -76.833 20.6748 -70.1523 c 0
EndSplineSet
EndChar
